<svg width="24" height="24" viewBox="0 0 24 24" fill="none" xmlns="http://www.w3.org/2000/svg">
<rect x="0.5" y="0.5" width="23" height="23" rx="11.5" fill="#131313"/>
<rect x="0.5" y="0.5" width="23" height="23" rx="11.5" stroke="white"/>
<g clip-path="url(#clip0_11463_82510)">
<mask id="mask0_11463_82510" style="mask-type:alpha" maskUnits="userSpaceOnUse" x="4" y="4" width="16" height="15">
<path d="M11.0557 18.1243C15.2724 19.2542 19.1568 18.4304 19.7319 16.2843C20.0879 14.9557 19.389 7.51616 17.5784 6.27992L15.1584 4.12706L10.2084 4.12706C8.16668 4.33995 4.80233 10.9225 4.46198 12.1927C3.88693 14.3388 6.83905 16.9945 11.0557 18.1243Z" fill="#D9D9D9"/>
</mask>
<g mask="url(#mask0_11463_82510)">
<path d="M14.7144 7.49234C13.5247 6.44261 15.4128 5.32991 11.9033 5.59777C10.0487 5.73932 9.25658 6.43601 8.40454 7.77971C7.32589 9.4808 8.04127 11.2655 8.32642 13.2609C8.564 14.9236 7.08289 17.3302 9.12968 20.3129C9.68724 21.1254 11.3869 22.4182 13.39 22.132C15.393 21.8457 16.4088 20.5136 16.956 19.1945C18.0202 16.6292 16.5183 14.8979 15.9524 12.1712C15.5433 10.2003 16.2226 8.82315 14.7144 7.49234Z" fill="url(#paint0_linear_11463_82510)"/>
<path d="M8.52088 13.2332C8.44877 12.7286 8.34926 12.2365 8.25953 11.765C8.16929 11.2909 8.08877 10.8361 8.04988 10.3928C7.97248 9.5103 8.0621 8.68678 8.57048 7.88499C8.99112 7.22163 9.38446 6.7382 9.88728 6.40087C10.3876 6.06521 11.0138 5.8627 11.9181 5.79366C12.7932 5.72687 13.3063 5.74885 13.6086 5.82377C13.7567 5.86047 13.8415 5.90712 13.8927 5.95137C13.9413 5.99339 13.9709 6.04287 13.9911 6.1086C14.0129 6.17968 14.0225 6.26417 14.0318 6.37678C14.0405 6.48372 14.0489 6.61516 14.0736 6.75099C14.1253 7.03453 14.2485 7.34325 14.5842 7.63952C15.2908 8.263 15.4832 8.88766 15.5498 9.6098C15.5841 9.98186 15.5844 10.3658 15.6022 10.8037C15.6198 11.2355 15.6545 11.7034 15.7599 12.2112C15.904 12.9054 16.1075 13.5344 16.3121 14.1228C16.5181 14.7149 16.722 15.2572 16.8766 15.7973C17.1822 16.8654 17.284 17.891 16.7746 19.1192C16.2427 20.4013 15.2718 21.6646 13.3623 21.9375C12.4107 22.0735 11.5264 21.835 10.8087 21.4603C10.0883 21.0841 9.54974 20.578 9.29148 20.2017C8.29939 18.756 8.16292 17.4559 8.24532 16.306C8.28701 15.7243 8.38416 15.1872 8.45881 14.6729C8.53229 14.1668 8.58464 13.6796 8.52088 13.2332ZM8.13197 13.2888C8.18694 13.6737 8.14322 14.1107 8.06979 14.6165C7.99752 15.1143 7.8968 15.6772 7.85375 16.2778C7.76671 17.4924 7.9132 18.887 8.96785 20.4239C9.26714 20.86 9.85726 21.4065 10.6267 21.8083C11.399 22.2116 12.3664 22.4767 13.4179 22.3264C15.5143 22.0268 16.575 20.6257 17.1375 19.2696C17.6921 17.9325 17.5751 16.8095 17.2544 15.689C17.0958 15.1349 16.8846 14.5728 16.6831 13.9934C16.4803 13.4102 16.2834 12.8001 16.1445 12.1311C16.0454 11.6535 16.012 11.2098 15.9948 10.7875C15.9778 10.3714 15.9766 9.95849 15.9411 9.57365C15.868 8.78181 15.646 8.05231 14.8444 7.34501C14.5855 7.11653 14.4986 6.89251 14.46 6.68066C14.4396 6.56875 14.4328 6.46141 14.4233 6.34487C14.4142 6.23413 14.4023 6.11014 14.3664 5.99334C14.3289 5.87115 14.2644 5.7533 14.1498 5.65419C14.0377 5.55732 13.8899 5.48884 13.7029 5.4425C13.335 5.35134 12.7679 5.33471 11.8884 5.40183C10.9382 5.47435 10.241 5.69084 9.66862 6.0748C9.09873 6.45712 8.66988 6.994 8.23848 7.67433C7.66826 8.57359 7.5764 9.49309 7.65832 10.427C7.69908 10.8918 7.78319 11.3636 7.87355 11.8383C7.96444 12.3159 8.06151 12.7957 8.13197 13.2888Z" fill="url(#paint1_linear_11463_82510)"/>
</g>
<path d="M4.68986 12.2538C4.43733 13.1962 4.94856 14.3109 6.11954 15.3643C7.27979 16.4081 9.03664 17.3395 11.1167 17.8969C13.1968 18.4542 15.1839 18.526 16.7106 18.2022C18.2515 17.8754 19.2519 17.1658 19.5044 16.2233C19.6609 15.6394 19.5264 14.993 19.1184 14.3286C18.71 13.6634 18.0355 12.9959 17.1486 12.3904C17.0412 12.317 17.0137 12.1704 17.087 12.0629C17.1605 11.9554 17.3071 11.9276 17.4146 12.001C18.3384 12.6317 19.0671 13.3442 19.5202 14.082C19.9737 14.8207 20.159 15.6007 19.9595 16.3453C19.637 17.5489 18.4076 18.3241 16.8083 18.6633C15.1949 19.0055 13.1313 18.9244 10.9948 18.3519C8.8582 17.7794 7.03059 16.8179 5.8044 15.7148C4.58901 14.6215 3.91191 13.3354 4.23442 12.1318C4.47719 11.2257 5.23732 10.5613 6.2705 10.1465C6.39131 10.098 6.52886 10.1567 6.57736 10.2776C6.6258 10.3983 6.56709 10.5355 6.44638 10.584C5.4896 10.9682 4.87987 11.5447 4.68986 12.2538Z" fill="white"/>
<ellipse cx="11.8898" cy="10.2399" rx="0.644286" ry="0.848572" fill="#222222"/>
<ellipse cx="13.9642" cy="10.2399" rx="0.644286" ry="0.848572" fill="#222222"/>
<path fill-rule="evenodd" clip-rule="evenodd" d="M4.52424 4.9724C4.54107 4.92367 4.61089 4.9237 4.62776 4.9724L5.02424 6.12572C5.02909 6.13956 5.03926 6.1508 5.05256 6.15697L6.07697 6.62084C6.11955 6.64009 6.11955 6.70023 6.07697 6.71947L5.05256 7.18236C5.03909 7.18856 5.02907 7.20056 5.02424 7.21459L4.62776 8.36693C4.61095 8.41578 4.54104 8.41578 4.52424 8.36693L4.12776 7.21459C4.12291 7.20052 4.11296 7.18855 4.09943 7.18236L3.07502 6.71947C3.03245 6.70023 3.03245 6.64009 3.07502 6.62084L4.09943 6.15697C4.11277 6.15082 4.12289 6.13958 4.12776 6.12572L4.52424 4.9724ZM6.56721 4.77611C6.58417 4.72774 6.65263 4.72789 6.66975 4.77611L6.78889 5.11498C6.79382 5.12906 6.80458 5.14014 6.81818 5.14623L7.13557 5.28783C7.17856 5.30693 7.17853 5.36734 7.13557 5.38647L6.81818 5.52807C6.80457 5.53415 6.79383 5.54524 6.78889 5.55932L6.66975 5.89818C6.6527 5.94652 6.58418 5.94659 6.56721 5.89818L6.44904 5.55932C6.44411 5.54525 6.43334 5.53416 6.41975 5.52807L6.10236 5.38647C6.05934 5.36737 6.05933 5.30693 6.10236 5.28783L6.41975 5.14623C6.43333 5.14013 6.44412 5.12904 6.44904 5.11498L6.56721 4.77611Z" fill="white"/>
</g>
<defs>
<linearGradient id="paint0_linear_11463_82510" x1="10.6484" y1="5.7143" x2="12.7227" y2="18.6472" gradientUnits="userSpaceOnUse">
<stop stop-color="#6D71FF"/>
<stop offset="0.344399" stop-color="#FF7CFF"/>
<stop offset="1" stop-color="white"/>
</linearGradient>
<linearGradient id="paint1_linear_11463_82510" x1="13.9027" y1="22.0586" x2="10.3722" y2="4.52199" gradientUnits="userSpaceOnUse">
<stop stop-color="white"/>
<stop offset="1" stop-color="white"/>
</linearGradient>
<clipPath id="clip0_11463_82510">
<rect width="18.8571" height="18.8571" fill="white" transform="translate(2.57129 2.57141)"/>
</clipPath>
</defs>
</svg>
